<svg xmlns="http://www.w3.org/2000/svg" version="1.1" xmlns:xlink="http://www.w3.org/1999/xlink" width="512" height="512" x="0" y="0" viewBox="0 0 512 512" style="enable-background:new 0 0 512 512" xml:space="preserve" class=""><g><path d="M213.98 351.242h-45.492l-19.718 23.064a31.448 31.448 0 0 1-23.904 11.013H28.644c-11.678 0-21.144-9.467-21.144-21.144V96.455c0-10.162 8.238-18.399 18.399-18.399h343.327c10.162 0 18.399 8.238 18.399 18.399v233.642c0 11.678-9.467 21.144-21.144 21.144H249.045" style="stroke-width:15;stroke-linecap:round;stroke-linejoin:round;stroke-miterlimit:10;" fill="none" stroke="#00aeef" stroke-width="15" stroke-linecap="round" stroke-linejoin="round" stroke-miterlimit="10" data-original="#000000" class="" opacity="1"></path><path d="M34.521 105.076h326.086v219.152H34.521z" style="stroke-width:15;stroke-linecap:round;stroke-linejoin:round;stroke-miterlimit:10;" fill="none" stroke="#00aeef" stroke-width="15" stroke-linecap="round" stroke-linejoin="round" stroke-miterlimit="10" data-original="#000000" class="" opacity="1"></path><path d="M360.608 268.119v56.109H34.521v-56.109c0-90.046 72.997-163.043 163.043-163.043h0c90.047 0 163.044 72.997 163.044 163.043zM34.521 355.749h34.696M101.424 355.749h0M213.98 351.242v58.689c0 13.262 10.751 24.013 24.013 24.013h201.409c13.262 0 24.013-10.751 24.013-24.013V314.76M480.499 209.47h15.403a8.598 8.598 0 0 1 8.598 8.598v25.011h-82.17v-25.011a8.598 8.598 0 0 1 8.598-8.598h14.495" style="stroke-width:15;stroke-linecap:round;stroke-linejoin:round;stroke-miterlimit:10;" fill="none" stroke="#00aeef" stroke-width="15" stroke-linecap="round" stroke-linejoin="round" stroke-miterlimit="10" data-original="#000000" class="" opacity="1"></path><path d="M504.5 243.079h-82.17v27.74a24.15 24.15 0 0 0 9.258 19.011l31.827 24.93 31.827-24.93a24.148 24.148 0 0 0 9.258-19.011v-27.74zM425.105 144.23c21.124-21.124 55.496-21.124 76.62 0M441.715 165.648c11.984-11.984 31.415-11.984 43.399 0M241.63 215.32v5.22c0 8.21-1.14 16.39-3.41 24.29-5.7 19.87-18.89 46.32-41.81 46.32-32.25 0-45.21-60.09-45.21-60.09" style="stroke-width:15;stroke-linecap:round;stroke-linejoin:round;stroke-miterlimit:10;" fill="none" stroke="#00aeef" stroke-width="15" stroke-linecap="round" stroke-linejoin="round" stroke-miterlimit="10" data-original="#000000" class="" opacity="1"></path><path d="m204.053 233.398 9.84-18.083h40.02a3.227 3.227 0 0 0 3.227-3.227v-19.09a3.227 3.227 0 0 0-3.227-3.227h-48.481a15.945 15.945 0 0 0-10.354 3.819l-43.883 37.473" style="stroke-width:15;stroke-linecap:round;stroke-linejoin:round;stroke-miterlimit:10;" fill="none" stroke="#00aeef" stroke-width="15" stroke-linecap="round" stroke-linejoin="round" stroke-miterlimit="10" data-original="#000000" class="" opacity="1"></path><path d="m151.197 231.063-.117-1.198-2.282-23.471a30.101 30.101 0 0 1 16.183-29.679l24.77-12.753 18.773-17.081a17.75 17.75 0 0 1 11.945-4.621h22.334a3.227 3.227 0 0 1 3.227 3.227v18.522a3.227 3.227 0 0 1-3.227 3.227h-13.745l-6.842 6.344 12.063 16.192M189.751 163.962l-12.301-17.66M164.981 176.715l-12.234-16.975" style="stroke-width:15;stroke-linecap:round;stroke-linejoin:round;stroke-miterlimit:10;" fill="none" stroke="#00aeef" stroke-width="15" stroke-linecap="round" stroke-linejoin="round" stroke-miterlimit="10" data-original="#000000" class="" opacity="1"></path></g></svg>