<svg xmlns="http://www.w3.org/2000/svg" viewBox="0 0 300 300"><defs><style>.cls-1{fill:#e0e0e0;}.cls-2{fill:#9e9e9e;}</style></defs><g id="Layer_2" data-name="Layer 2"><g id="Objects"><path class="cls-1" d="M300,150a149.52,149.52,0,0,1-45,107.13q-3.66,3.6-7.57,6.93c-1,.89-2.08,1.76-3.14,2.62l-.33.26q-5.58,4.5-11.58,8.45a150.12,150.12,0,0,1-164.72,0q-6-3.94-11.58-8.45l-.33-.26c-1.06-.86-2.11-1.73-3.14-2.62q-3.92-3.33-7.57-6.93A150,150,0,1,1,300,150Z"/><path class="cls-2" d="M243.94,266.94q-5.58,4.5-11.58,8.45a150.12,150.12,0,0,1-164.72,0q-6-3.94-11.58-8.45A58.33,58.33,0,0,1,93.6,218.47l34-12.74V193.27a52.4,52.4,0,0,1-6.91-5.2c-28.27,4.17-44.36-10.86-44.36-10.86s10.85-13,10.86-47.73V107c0-34.07,28.58-62.84,62.85-62.84S212.85,72.9,212.85,107v22.51c0,34.77,10.86,47.73,10.86,47.73s-16.2,15.1-44.47,10.94a53.87,53.87,0,0,1-6.8,5.11v12.47l34,12.74A58.33,58.33,0,0,1,243.94,266.94Z"/></g></g></svg>