<svg width="41" height="41" viewBox="0 0 41 41" fill="none" xmlns="http://www.w3.org/2000/svg">
<path d="M37.4157 24.2674H36.1932C37.0501 23.4685 37.5874 22.331 37.5874 21.0699C37.5874 18.6585 35.6256 16.6967 33.2143 16.6967C30.8029 16.6967 28.8412 18.6585 28.8412 21.0699C28.8412 22.331 29.3785 23.4685 30.2354 24.2674H29.0128C27.5908 24.2674 26.3513 25.1357 25.8527 26.4288H24.2972V25.6896C25.5523 24.6711 26.3564 23.1174 26.3564 21.3788C26.3564 18.3184 23.8666 15.8286 20.8062 15.8286C17.7457 15.8286 15.2559 18.3185 15.2559 21.3788C15.2559 23.1174 16.06 24.6711 17.3151 25.6896V26.4288H15.7596C15.261 25.1357 14.0215 24.2674 12.5995 24.2674H11.3769C12.2338 23.4685 12.7711 22.331 12.7711 21.0699C12.7711 18.6585 10.8094 16.6967 8.39802 16.6967C5.98668 16.6967 4.02488 18.6585 4.02488 21.0699C4.02488 22.331 4.5622 23.4685 5.41911 24.2674H4.19659C2.32711 24.2674 0.806152 25.7883 0.806152 27.6579V28.64C0.806152 28.9647 1.06932 29.2278 1.39394 29.2278C1.71856 29.2278 1.98173 28.9647 1.98173 28.64V27.6579C1.98173 26.4365 2.97533 25.4429 4.19659 25.4429H7.81024V28.0501H8.98581V25.4429H12.5995C13.394 25.4429 14.1015 25.8577 14.4934 26.506C12.5268 26.8833 11.036 28.6158 11.036 30.6907V34.1583H2.17766C2.06966 34.1583 1.98173 34.0704 1.98173 33.9623V31.383C1.98173 31.0583 1.71856 30.7952 1.39394 30.7952C1.06932 30.7952 0.806152 31.0583 0.806152 31.383V33.9623C0.806152 34.7186 1.42145 35.3339 2.17766 35.3339H11.0361V38.7549C11.0361 39.5111 11.6514 40.1264 12.4076 40.1264H29.2048C29.961 40.1264 30.5763 39.5111 30.5763 38.7549V35.3339H35.2266C35.5512 35.3339 35.8143 35.0708 35.8143 34.7461C35.8143 34.4214 35.5512 34.1584 35.2266 34.1584H30.5763V30.6908C30.5763 28.6164 29.0863 26.8844 27.1205 26.5063C27.5124 25.8583 28.2185 25.4429 29.0128 25.4429H32.6264V28.0501H33.802V25.4429H37.4156C38.6369 25.4429 39.6305 26.4365 39.6305 27.6579V33.9624C39.6305 34.0705 39.5426 34.1584 39.4346 34.1584H37.9696C37.6449 34.1584 37.3818 34.4214 37.3818 34.7461C37.3818 35.0708 37.6449 35.3339 37.9696 35.3339H39.4346C40.1909 35.3339 40.8062 34.7186 40.8062 33.9624V27.6579C40.8062 25.7883 39.2853 24.2674 37.4157 24.2674ZM8.39802 24.2674C6.63489 24.2674 5.20046 22.8329 5.20046 21.0699C5.20046 19.3068 6.63489 17.8723 8.39802 17.8723C10.1612 17.8723 11.5955 19.3068 11.5955 21.0699C11.5956 22.8329 10.1612 24.2674 8.39802 24.2674ZM16.4314 21.3788C16.4314 18.9666 18.3939 17.0042 20.8062 17.0042C23.2184 17.0042 25.1809 18.9666 25.1809 21.3788C25.1809 23.791 23.2184 25.7535 20.8062 25.7535C18.3939 25.7535 16.4314 23.791 16.4314 21.3788ZM23.1216 26.4212V28.1024L21.318 26.9047C21.9566 26.8459 22.5637 26.6784 23.1216 26.4212ZM20.2942 26.9046L18.4907 28.1023V26.4211C19.0486 26.6784 19.6557 26.8459 20.2942 26.9046ZM29.4007 30.6908V38.7549C29.4007 38.863 29.3128 38.9509 29.2048 38.9509H21.3939V33.7783C21.3939 33.4536 21.1308 33.1905 20.8062 33.1905C20.4815 33.1905 20.2184 33.4536 20.2184 33.7783V38.9509H12.4075C12.2995 38.9509 12.2116 38.863 12.2116 38.7549V30.6908C12.2116 28.989 13.5962 27.6044 15.298 27.6044H17.3151V28.569C17.3151 28.9105 17.5021 29.2231 17.8031 29.3844C17.9403 29.458 18.0907 29.4945 18.2406 29.4945C18.4194 29.4945 18.5976 29.4426 18.7524 29.3397L20.2184 28.3662V31.0353C20.2184 31.36 20.4815 31.6231 20.8062 31.6231C21.1308 31.6231 21.3939 31.36 21.3939 31.0353V28.3662L22.8599 29.3397C23.1444 29.5287 23.5082 29.5459 23.8092 29.3843C24.1102 29.2229 24.2972 28.9104 24.2972 28.5689V27.6043H26.3143C28.0161 27.6044 29.4007 28.989 29.4007 30.6908ZM33.2143 24.2674C31.4512 24.2674 30.0168 22.8329 30.0168 21.0699C30.0168 19.3068 31.4512 17.8723 33.2143 17.8723C34.9774 17.8723 36.4118 19.3068 36.4118 21.0699C36.4118 22.8329 34.9774 24.2674 33.2143 24.2674Z" fill="#005BAB"/>
<path d="M20.2183 13.362V13.8965C20.2183 14.2211 20.4814 14.4842 20.806 14.4842C21.1307 14.4842 21.3938 14.2211 21.3938 13.8965V13.362C21.3938 13.0373 21.1307 12.7742 20.806 12.7742C20.4814 12.7742 20.2183 13.0373 20.2183 13.362Z" fill="#005BAB"/>
<path d="M18.0401 12.0329C17.759 11.8707 17.3995 11.9669 17.2372 12.2481L16.97 12.7109C16.8077 12.992 16.904 13.3515 17.1851 13.5138C17.2776 13.5673 17.3787 13.5927 17.4784 13.5927C17.6816 13.5927 17.8791 13.4873 17.988 13.2987L18.2553 12.8358C18.4176 12.5547 18.3212 12.1952 18.0401 12.0329Z" fill="#005BAB"/>
<path d="M15.2125 9.79317L14.7495 10.0605C14.4684 10.2229 14.3721 10.5824 14.5345 10.8635C14.6433 11.052 14.8409 11.1574 15.044 11.1574C15.1436 11.1574 15.2448 11.132 15.3374 11.0785L15.8003 10.8112C16.0814 10.6488 16.1778 10.2893 16.0154 10.0082C15.8531 9.72718 15.4934 9.63094 15.2125 9.79317Z" fill="#005BAB"/>
<path d="M14.1518 7.82987H14.6862C15.0109 7.82987 15.274 7.56678 15.274 7.24208C15.274 6.91739 15.0109 6.6543 14.6862 6.6543H14.1518C13.8271 6.6543 13.564 6.91739 13.564 7.24208C13.564 7.56678 13.8271 7.82987 14.1518 7.82987Z" fill="#005BAB"/>
<path d="M14.7496 4.42406L15.2125 4.69131C15.3051 4.74476 15.4062 4.77015 15.5059 4.77015C15.709 4.77015 15.9066 4.66474 16.0154 4.47618C16.1777 4.19506 16.0814 3.83557 15.8003 3.67326L15.3374 3.40601C15.0562 3.2437 14.6968 3.33994 14.5344 3.62114C14.3721 3.90226 14.4685 4.26175 14.7496 4.42406Z" fill="#005BAB"/>
<path d="M17.2372 2.23601C17.346 2.42457 17.5437 2.52998 17.7468 2.52998C17.8464 2.52998 17.9475 2.50459 18.0401 2.45114C18.3212 2.28891 18.4176 1.92942 18.2553 1.64822L17.9881 1.18528C17.8258 0.904082 17.4662 0.807999 17.1851 0.97015C16.904 1.13238 16.8076 1.49187 16.9699 1.77307L17.2372 2.23601Z" fill="#005BAB"/>
<path d="M20.806 1.71007C21.1307 1.71007 21.3938 1.44698 21.3938 1.12228V0.587788C21.3938 0.263094 21.1307 0 20.806 0C20.4814 0 20.2183 0.263094 20.2183 0.587788V1.12228C20.2183 1.44698 20.4814 1.71007 20.806 1.71007Z" fill="#005BAB"/>
<path d="M23.5723 2.45125C23.6649 2.50477 23.7659 2.53009 23.8657 2.53009C24.0688 2.53009 24.2664 2.4246 24.3752 2.23612L24.6425 1.77317C24.8048 1.49198 24.7084 1.13248 24.4273 0.970255C24.1461 0.80779 23.7867 0.904344 23.6244 1.18539L23.3571 1.64833C23.1949 1.92953 23.2912 2.28902 23.5723 2.45125Z" fill="#005BAB"/>
<path d="M26.1065 4.77011C26.2062 4.77011 26.3073 4.74472 26.3998 4.69127L26.8628 4.42402C27.1439 4.26172 27.2402 3.90223 27.0779 3.62111C26.9156 3.33991 26.556 3.24375 26.275 3.40598L25.812 3.67322C25.5309 3.83553 25.4346 4.19502 25.5969 4.47614C25.7058 4.66478 25.9034 4.77011 26.1065 4.77011Z" fill="#005BAB"/>
<path d="M26.3384 7.24208C26.3384 7.56678 26.6016 7.82987 26.9262 7.82987H27.4607C27.7853 7.82987 28.0485 7.56678 28.0485 7.24208C28.0485 6.91739 27.7853 6.6543 27.4607 6.6543H26.9262C26.6016 6.6543 26.3384 6.91747 26.3384 7.24208Z" fill="#005BAB"/>
<path d="M25.812 10.811L26.2749 11.0783C26.3675 11.1317 26.4686 11.1571 26.5682 11.1571C26.7714 11.1571 26.969 11.0517 27.0778 10.8631C27.2401 10.582 27.1438 10.2225 26.8627 10.0602L26.3998 9.79297C26.1187 9.63067 25.7592 9.72691 25.5969 10.0081C25.4346 10.2892 25.5309 10.6487 25.812 10.811Z" fill="#005BAB"/>
<path d="M23.5724 12.0331C23.2912 12.1954 23.1948 12.5549 23.3571 12.8361L23.6244 13.299C23.7333 13.4876 23.9309 13.593 24.134 13.593C24.2337 13.593 24.3348 13.5676 24.4273 13.5141C24.7084 13.3519 24.8048 12.9924 24.6425 12.7112L24.3753 12.2483C24.213 11.9671 23.8534 11.871 23.5724 12.0331Z" fill="#005BAB"/>
<path d="M17.8523 8.21111L17.8062 9.96232C17.7975 10.2955 17.9531 10.6112 18.2228 10.8071C18.398 10.9344 18.6064 11.0002 18.8171 11.0002C18.9307 11.0002 19.0448 10.9811 19.1548 10.9421L20.806 10.3571L22.4571 10.942C22.7713 11.0533 23.1197 11.0029 23.3892 10.807C23.6588 10.6112 23.8145 10.2954 23.8058 9.96225L23.7598 8.21103L24.8263 6.8215C25.0292 6.55723 25.0889 6.21028 24.986 5.89342C24.8831 5.57641 24.6309 5.33063 24.3113 5.23596L22.6315 4.73869L21.6396 3.29485C21.4509 3.02023 21.1392 2.8562 20.8061 2.8562C20.4729 2.8562 20.1612 3.02015 19.9726 3.29485L18.9807 4.73869L17.3008 5.23596C16.9812 5.33063 16.729 5.57641 16.6261 5.89342C16.5232 6.21028 16.5829 6.55723 16.7858 6.82142L17.8523 8.21111ZM19.37 5.84945C19.5915 5.78386 19.7855 5.64294 19.9165 5.4525L20.806 4.15772L21.6957 5.45258C21.8266 5.64294 22.0206 5.78386 22.242 5.84938L23.7482 6.29523L22.7918 7.54126C22.651 7.7245 22.5769 7.95272 22.583 8.18368L22.6244 9.75393L21.1439 9.22955C20.9259 9.15227 20.6859 9.15235 20.4682 9.22947L18.9876 9.75393L19.0289 8.18376C19.035 7.95272 18.9609 7.7245 18.8202 7.54134L17.8637 6.29523L19.37 5.84945Z" fill="#005BAB"/>
<path d="M32.6263 10.4342V14.3421C32.6263 14.6668 32.8895 14.9298 33.2141 14.9298C33.5387 14.9298 33.8019 14.6668 33.8019 14.3421V10.4808C35.0643 10.2528 36.0252 9.14664 36.0252 7.81949C36.0252 6.32784 34.8117 5.11426 33.32 5.11426C31.8283 5.11426 30.6147 6.32777 30.6147 7.81949C30.6147 9.07148 31.4697 10.1271 32.6263 10.4342ZM33.32 6.28991C34.1634 6.28991 34.8496 6.97614 34.8496 7.81957C34.8496 8.66301 34.1635 9.34923 33.32 9.34923C32.4765 9.34923 31.7903 8.66301 31.7903 7.81957C31.7903 6.97614 32.4765 6.28991 33.32 6.28991Z" fill="#005BAB"/>
<path d="M7.8104 10.4342V14.3421C7.8104 14.6668 8.07357 14.9298 8.39818 14.9298C8.7228 14.9298 8.98597 14.6668 8.98597 14.3421V10.4808C10.2484 10.2528 11.2093 9.14664 11.2093 7.81949C11.2093 6.32784 9.99579 5.11426 8.50406 5.11426C7.01234 5.11426 5.79883 6.32784 5.79883 7.81949C5.79883 9.07148 6.65379 10.1271 7.8104 10.4342ZM8.50406 6.28991C9.3475 6.28991 10.0337 6.97614 10.0337 7.81957C10.0337 8.66301 9.34758 9.34923 8.50406 9.34923C7.66055 9.34923 6.9744 8.66301 6.9744 7.81957C6.9744 6.97614 7.66063 6.28991 8.50406 6.28991Z" fill="#005BAB"/>
</svg>
