<svg xmlns="http://www.w3.org/2000/svg" viewBox="0 0 300 300"><defs><style>.cls-1{fill:#e0e0e0;}.cls-2{fill:#9e9e9e;}</style></defs><g id="Layer_2" data-name="Layer 2"><g id="Objects"><path class="cls-1" d="M300,150a149.52,149.52,0,0,1-45,107.13l-.52.51c-2.28,2.21-4.63,4.36-7.05,6.42A150,150,0,0,1,67.64,275.39a148.38,148.38,0,0,1-15-11.33c-2.42-2.06-4.77-4.21-7.05-6.42l-.52-.51A150,150,0,1,1,300,150Z"/><path class="cls-2" d="M254.46,257.64c-2.28,2.21-4.63,4.36-7.05,6.42A150,150,0,0,1,67.64,275.39a148.38,148.38,0,0,1-15-11.33c-2.42-2.06-4.77-4.21-7.05-6.42a58,58,0,0,1,37.71-37.47l44.4-14v-7.32c-5.56-3.31-10.53-7.09-14.63-9.86a33.46,33.46,0,0,1-14.28-22.28l-2.37-14.17A13.41,13.41,0,0,1,91,126.82a138.28,138.28,0,0,1-9-30.59c-1.16-6.7-1.82-13.76.15-20.21S89.31,63.9,95.44,63.79l.81.06c3.87-6.05,9.92-10,16.27-12.33s13-3.09,19.69-3.85c2.6-.3,5.21-.6,7.82-.87,12.06-1.16,25.2-1.44,37.53,2s24.26,11.14,30.54,23.42c5,9.74,6,21.49,4.74,32.62a128.66,128.66,0,0,1-4.67,21.65,13.41,13.41,0,0,1-4.54,26l-2.37,14.17A33.5,33.5,0,0,1,187,189c-4.1,2.77-9.07,6.55-14.63,9.86v7.32l44.39,14A58,58,0,0,1,254.46,257.64Z"/></g></g></svg>