<svg id="Layer_1" enable-background="new 0 0 512 512" height="30" viewBox="0 0 512 512" width="30" xmlns="http://www.w3.org/2000/svg"><path d="m390.222 258.682-12.613-137.217c-.568-6.176-5.748-10.902-11.95-10.902h-73.276v-27.879c0-43.387-35.298-78.684-78.684-78.684s-78.684 35.297-78.684 78.684v27.878h-73.278c-6.202 0-11.382 4.726-11.95 10.902l-26.07 283.639c-1.008 10.975 2.385 21.08 9.812 29.221 7.429 8.142 17.18 12.446 28.201 12.446h192.333c22.111 36.66 62.322 61.23 108.167 61.23 69.601 0 126.226-56.625 126.226-126.226 0-59.983-42.059-110.324-98.234-123.092zm-231.207-175.998c0-30.153 24.531-54.684 54.684-54.684s54.685 24.531 54.685 54.684v27.878h-109.369zm-97.285 340.086c-4.267 0-7.594-1.469-10.47-4.622-2.876-3.152-4.033-6.6-3.643-10.849l25.068-272.736h62.33v21.879c0 6.627 5.373 12 12 12s12-5.373 12-12v-21.879h109.369v21.879c0 6.627 5.373 12 12 12s12-5.373 12-12v-21.879h62.329l11.126 121.041c-1.199-.034-2.401-.055-3.608-.055-69.601 0-126.226 56.625-126.226 126.226 0 14.344 2.41 28.135 6.839 40.995zm300.5 61.23c-56.368 0-102.226-45.858-102.226-102.226s45.858-102.226 102.226-102.226c56.367 0 102.226 45.858 102.226 102.226s-45.859 102.226-102.226 102.226zm56.393-139.859c4.583 4.787 4.418 12.383-.369 16.967l-61.276 58.668c-2.318 2.219-5.308 3.332-8.299 3.332-2.909 0-5.819-1.052-8.116-3.162l-34.174-31.384c-4.881-4.483-5.205-12.074-.722-16.955 4.483-4.883 12.074-5.205 16.955-.722l25.887 23.773 53.148-50.887c4.786-4.582 12.382-4.417 16.966.37z"/></svg>