<svg 
    width="30" 
    height="30" 
    viewBox="0 0 48 48" 
    xmlns="http://www.w3.org/2000/svg">
    <g id="report_19" data-name="report 19">
        <path d="m22 33h-1a1 1 0 0 0 0 2h1a1 1 0 0 0 0-2z"/>
        <path d="m37 33h-11a1 1 0 0 0 0 2h11a1 1 0 0 0 0-2z"/>
        <path d="m22 37h-1a1 1 0 0 0 0 2h1a1 1 0 0 0 0-2z"/><path d="m37 37h-11a1 1 0 0 0 0 2h11a1 1 0 0 0 0-2z"/><path d="m40 5h-29a6 6 0 0 0 -6 6v8a3 3 0 0 0 3 3h7v18a3 3 0 0 0 3 3h22a3 3 0 0 0 3-3v-32a3 3 0 0 0 -3-3zm-25 15h-7a1 1 0 0 1 -1-1v-8a4 4 0 0 1 8 0zm26 20a1 1 0 0 1 -1 1h-22a1 1 0 0 1 -1-1v-29a6 6 0 0 0 -1.54-4h24.54a1 1 0 0 1 1 1z"/><path d="m37 31a1 1 0 0 0 0-2h-11a1 1 0 0 0 0 2z"/><path d="m22 31a1 1 0 0 0 0-2h-1a1 1 0 0 0 0 2z"/><path d="m37 20.6a1 1 0 0 0 -1 1 2.41 2.41 0 0 1 -2.4 2.4h-9.17a2.42 2.42 0 0 1 -2.43-2.4 1 1 0 0 0 -2 0 4.43 4.43 0 0 0 4.43 4.4h9.17a4.42 4.42 0 0 0 4.4-4.4 1 1 0 0 0 -1-1z"/><path d="m28.21 21.47a1 1 0 0 0 1.61 0l2.89-3.89a1 1 0 0 0 -1.61-1.2l-1.1 1.47v-7.85a1 1 0 1 0 -2 0v7.89l-1.09-1.47a1 1 0 0 0 -1.6 1.2z"/></g></svg>