<svg id="_x31_px" enable-background="new 0 0 24 24" height="30" viewBox="0 0 24 24" width="30" xmlns="http://www.w3.org/2000/svg"><path d="m18.5 24h-13c-1.379 0-2.5-1.121-2.5-2.5v-14c0-.276.224-.5.5-.5s.5.224.5.5v14c0 .827.673 1.5 1.5 1.5h13c.827 0 1.5-.673 1.5-1.5v-14c0-.276.224-.5.5-.5s.5.224.5.5v14c0 1.379-1.121 2.5-2.5 2.5z"/><path d="m21.5 8h-19c-.827 0-1.5-.673-1.5-1.5v-1c0-.827.673-1.5 1.5-1.5h19c.827 0 1.5.673 1.5 1.5v1c0 .827-.673 1.5-1.5 1.5zm-19-3c-.275 0-.5.225-.5.5v1c0 .275.225.5.5.5h19c.275 0 .5-.225.5-.5v-1c0-.275-.225-.5-.5-.5z"/><path d="m19.5 5c-.276 0-.5-.224-.5-.5v-2c0-.827-.673-1.5-1.5-1.5h-11c-.827 0-1.5.673-1.5 1.5v2c0 .276-.224.5-.5.5s-.5-.224-.5-.5v-2c0-1.379 1.121-2.5 2.5-2.5h11c1.379 0 2.5 1.121 2.5 2.5v2c0 .276-.224.5-.5.5z"/><path d="m11.5 20h-8c-.276 0-.5-.224-.5-.5s.224-.5.5-.5h8c.827 0 1.5-.673 1.5-1.5v-4c0-.827-.673-1.5-1.5-1.5h-8c-.276 0-.5-.224-.5-.5s.224-.5.5-.5h8c1.379 0 2.5 1.121 2.5 2.5v4c0 1.379-1.121 2.5-2.5 2.5z"/></svg>